<?xml version="1.0" encoding="UTF-8"?>
<svg version="1.1" xmlns="http://www.w3.org/2000/svg" width="2000" height="2000">
<path d="M0 0 C0.95922363 -0.00064453 1.91844727 -0.00128906 2.90673828 -0.00195312 C10.21019706 0.05219215 17.08097968 0.76132415 24.25 2.1875 C27.64217289 15.29039976 30.57340524 28.47965777 33.453125 41.703125 C33.94056116 43.93513979 34.42809134 46.16713405 34.91571045 48.39910889 C35.92922212 53.04125905 36.94081832 57.68382167 37.95117188 62.32666016 C39.24684904 68.2793367 40.54861323 74.23066428 41.85191727 80.18167496 C42.85675728 84.77402871 43.85780266 89.36720335 44.85774994 93.96062469 C45.33648044 96.15698677 45.81653905 98.3530598 46.29795074 100.54883575 C46.96723773 103.60365189 47.63126433 106.65956537 48.29394531 109.71582031 C48.49337738 110.62072708 48.69280945 111.52563385 48.89828491 112.45796204 C49.07761566 113.29016769 49.25694641 114.12237335 49.44171143 114.97979736 C49.59875172 115.70013783 49.75579201 116.42047829 49.91759109 117.16264725 C50.25 119.1875 50.25 119.1875 50.25 123.1875 C50.91 123.1875 51.57 123.1875 52.25 123.1875 C52.36885559 122.06242538 52.48771118 120.93735077 52.61016846 119.77818298 C53.21120602 114.99751609 54.30728797 110.40307048 55.48730469 105.73657227 C55.71350494 104.82636826 55.9397052 103.91616425 56.17276001 102.9783783 C56.91781605 99.98570556 57.66965638 96.99478598 58.421875 94.00390625 C58.9468629 91.90379944 59.47153616 89.80361394 59.99591064 87.70335388 C61.09584989 83.30221417 62.19905751 78.90191074 63.3046875 74.50219727 C64.70992801 68.9094533 66.10792656 63.31493111 67.50352097 57.71977329 C68.58705142 53.3786327 69.67409607 49.03837787 70.76218414 44.69837761 C71.27817122 42.63889556 71.79320833 40.57917522 72.30721283 38.51919746 C75.35356962 26.32130885 78.58570272 14.21514582 82.25 2.1875 C95.31636483 0.49619808 107.48610752 -0.31494003 120.62890625 1.203125 C121.46006958 1.2973877 122.29123291 1.39165039 123.14758301 1.48876953 C125.18194047 1.71976377 127.21600141 1.95336683 129.25 2.1875 C129.46369138 3.0359176 129.46369138 3.0359176 129.68169975 3.90147495 C133.15273385 17.68217821 136.62499626 31.46257149 140.09861565 45.24262333 C141.77842093 51.90663359 143.4578147 58.57074704 145.13623047 65.23510742 C146.75619577 71.66737796 148.37732009 78.09935567 149.99914932 84.53115654 C150.61750758 86.98422013 151.23547837 89.43738143 151.85305405 91.89064217 C152.71855393 95.32847782 153.58543466 98.76596253 154.45263672 102.20336914 C154.70726685 103.21613419 154.96189697 104.22889923 155.22424316 105.27235413 C155.46258881 106.21594788 155.70093445 107.15954163 155.94650269 108.13172913 C156.15114073 108.94382874 156.35577877 109.75592836 156.56661797 110.59263706 C157.41239839 113.80414127 158.33764854 116.99426988 159.25 120.1875 C167.83 81.2475 176.41 42.3075 185.25 2.1875 C201.8828911 0.23068928 216.025233 -0.39005164 232.25 2.1875 C233.50699148 5.95847444 232.80415252 7.3450868 231.60131836 11.10253906 C231.21096909 12.33726456 230.82061981 13.57199005 230.41844177 14.84413147 C229.97567663 16.21382859 229.53280715 17.58349199 229.08984375 18.953125 C228.63194343 20.39149417 228.17489661 21.83013529 227.71864319 23.26902771 C226.73438819 26.3678145 225.74486981 29.46485125 224.7512207 32.56063843 C223.17750187 37.46445982 221.61555236 42.37197152 220.05664062 47.28051758 C219.79399729 48.10749681 219.53135395 48.93447603 219.26075172 49.78651524 C218.72466711 51.47467021 218.18863956 53.1628433 217.652668 54.85103416 C216.83304596 57.43155864 216.01233942 60.0117364 215.1914978 62.59187317 C209.44808573 80.65647014 203.84135723 98.7628722 198.25 116.875 C197.56411553 119.09652497 196.87819695 121.31803938 196.19217587 123.53952217 C195.74909307 124.97446745 195.30615706 126.40945806 194.86337376 127.84449577 C193.81231542 131.24940047 192.75798418 134.65321541 191.6955719 138.05459595 C189.83284712 144.02389296 188.00419548 149.99768754 186.28515625 156.01025391 C185.9806958 157.04487259 185.67623535 158.07949127 185.36254883 159.14546204 C184.80706574 161.0366182 184.27021093 162.93339692 183.7565918 164.83634949 C183.07552964 167.1152289 182.4325189 169.12427664 181.25 171.1875 C175.21257939 174.29621096 167.9291408 173.88186967 161.25 174.1875 C160.0125 174.25130859 160.0125 174.25130859 158.75 174.31640625 C150.21356129 174.53870934 141.7075602 173.20379284 133.25 172.1875 C127.79917843 153.86203237 122.72006743 135.44476351 117.7166748 116.99365234 C116.14690804 111.20685791 114.57293725 105.4212041 112.99964142 99.63536835 C112.62195295 98.24622 112.24436283 96.8570449 111.86687469 95.4678421 C109.03082373 85.03089175 106.16751449 74.601988 103.25 64.1875 C96.99694783 84.18433796 91.34947388 104.34658801 85.68756104 124.51660156 C84.42818272 129.00113205 83.16615451 133.48491663 81.90429688 137.96875 C80.48578926 143.00961154 79.06751943 148.05053862 77.65129089 153.09204102 C77.43720581 153.85403809 77.22312073 154.61603516 77.00254822 155.40112305 C76.60730917 156.8080681 76.21219185 158.21504736 75.81723022 159.62207031 C74.63960081 163.81388255 73.44879676 168.00170676 72.25 172.1875 C66.78372921 173.39048507 61.39111223 173.58329488 55.8125 173.8125 C54.7402417 173.85681152 53.6679834 173.90112305 52.56323242 173.94677734 C42.97580231 174.28972821 33.68025524 174.12155675 24.25 172.1875 C17.24433806 149.1892224 10.24394194 126.18934456 3.25 103.1875 C3.01475868 102.41383842 2.77951736 101.64017685 2.53714752 100.84307098 C-18.62732761 31.23383304 -18.62732761 31.23383304 -26.75 3.1875 C-17.91431867 0.3676017 -9.23018365 -0.00645355 0 0 Z " fill="#FFFFFF" transform="translate(1658.75,939.8125)"/>
<path d="M0 0 C44.22 0 88.44 0 134 0 C136.25395538 11.26977688 136.25395538 11.26977688 136.265625 15.4375 C136.26820313 16.35273437 136.27078125 17.26796875 136.2734375 18.2109375 C136.26570313 19.13132812 136.25796875 20.05171875 136.25 21 C136.25773437 21.92039062 136.26546875 22.84078125 136.2734375 23.7890625 C136.27085937 24.70429687 136.26828125 25.61953125 136.265625 26.5625 C136.26336914 27.36816406 136.26111328 28.17382812 136.25878906 29.00390625 C135.88040699 33.38457114 134.86231794 37.68841031 134 42 C105.95 42 77.9 42 49 42 C49 59.82 49 77.64 49 96 C71.44 96 93.88 96 117 96 C118.01645211 103.11516477 118.18379214 109.83641593 118.1875 117 C118.19974609 118.24523437 118.21199219 119.49046875 118.22460938 120.7734375 C118.22654297 121.98257813 118.22847656 123.19171875 118.23046875 124.4375 C118.23457764 125.52933594 118.23868652 126.62117187 118.24291992 127.74609375 C118 131 118 131 116 138 C93.89 138 71.78 138 49 138 C49 170.34 49 202.68 49 236 C40.3322272 237.23825326 32.54638953 238.32624109 23.9375 238.25 C22.62168945 238.26160156 22.62168945 238.26160156 21.27929688 238.2734375 C13.86852239 238.2519102 7.52713525 237.15802081 0 236 C0 158.12 0 80.24 0 0 Z " fill="#FFFFFF" transform="translate(1197,876)"/>
<path d="M0 0 C14.22189473 14.2267761 22.12230988 35.09295219 22.14135742 55.1418457 C22.14264648 56.44895508 22.14393555 57.75606445 22.14526367 59.1027832 C22.14316895 59.77664063 22.14107422 60.45049805 22.13891602 61.14477539 C22.13356001 63.19856144 22.13887937 65.25212885 22.14526367 67.3059082 C22.14333008 69.26657227 22.14333008 69.26657227 22.14135742 71.2668457 C22.14022949 72.45407227 22.13910156 73.64129883 22.13793945 74.86450195 C22.00854492 78.2043457 22.00854492 78.2043457 21.00854492 84.2043457 C-32.45145508 84.6993457 -32.45145508 84.6993457 -86.99145508 85.2043457 C-84.59507079 97.18626714 -82.14067453 105.09609088 -71.99145508 112.2043457 C-56.41071176 122.48100619 -34.82481815 120.51779592 -17.35864258 117.13793945 C-10.51433858 115.71628768 -3.74174286 114.01607144 3.00854492 112.2043457 C8.36245766 122.15034961 12.19649554 132.10083981 12.07104492 143.5168457 C12.06202148 144.58547852 12.05299805 145.65411133 12.04370117 146.75512695 C12.02629883 147.96749023 12.02629883 147.96749023 12.00854492 149.2043457 C0.7865223 152.75775212 -10.32554595 155.56632907 -21.99145508 157.2043457 C-22.66055908 157.30005859 -23.32966309 157.39577148 -24.01904297 157.49438477 C-49.99822014 160.81353322 -81.15146454 159.5405184 -102.99145508 143.2043457 C-121.27831587 128.05574618 -131.15507289 109.93302078 -133.99145508 86.2043457 C-134.28222716 81.11755283 -134.32580412 76.04860632 -134.30395508 70.9543457 C-134.30179993 70.27081024 -134.29964478 69.58727478 -134.29742432 68.88302612 C-134.16605418 42.91616244 -127.26931254 19.77907389 -108.77661133 0.8605957 C-104.80002963 -2.93193663 -100.71674809 -6.00213001 -95.99145508 -8.7956543 C-95.10200195 -9.32803711 -94.21254883 -9.86041992 -93.29614258 -10.40893555 C-84.94011328 -14.99678269 -76.28249674 -17.06392088 -66.99145508 -18.7956543 C-66.12004883 -18.9606543 -65.24864258 -19.1256543 -64.35083008 -19.2956543 C-41.24990094 -22.52655348 -16.9788718 -16.17286872 0 0 Z M-76.95629883 24.95825195 C-84.50250362 32.85544302 -85.91393809 40.42917586 -86.99145508 51.2043457 C-65.87145508 51.2043457 -44.75145508 51.2043457 -22.99145508 51.2043457 C-22.99145508 39.57308665 -25.33507381 31.67276871 -33.56176758 23.27075195 C-45.92488729 12.75613728 -65.13133006 14.40276293 -76.95629883 24.95825195 Z " fill="#FFFFFF" transform="translate(1138.991455078125,957.795654296875)"/>
<path d="M0 0 C17.07816008 15.76014116 26.47610193 37.7915794 27.50292969 60.99829102 C28.16417731 87.65840744 25.46256532 111.21905621 9.37890625 133.1953125 C8.82589844 133.96359375 8.27289062 134.731875 7.703125 135.5234375 C-3.7461284 149.95574699 -23.08088315 157.379285 -40.8125 159.84375 C-63.84890731 161.9701876 -88.64274042 159.10215151 -107.18115234 143.91748047 C-124.35220941 128.86289312 -133.82499275 106.81342595 -135.62109375 84.1953125 C-136.90375346 56.27473959 -133.43827016 28.60124227 -114.69921875 6.46484375 C-86.74118889 -24.06826781 -31.64146455 -26.71494439 0 0 Z M-77.62109375 29.1953125 C-89.66347543 47.38176646 -90.29003482 72.23604857 -86.37109375 93.1328125 C-83.8006894 104.50418658 -80.16917887 114.02703765 -70.16796875 120.875 C-62.18467107 125.0135807 -52.10241972 125.31132538 -43.55859375 122.875 C-36.59011285 120.43041194 -31.62298244 116.37483991 -27.62109375 110.1953125 C-18.46447758 90.11840475 -16.54163979 62.18002407 -24.33740234 41.27441406 C-28.05026839 32.18940236 -32.31181741 26.10038823 -40.93359375 21.3828125 C-54.52019924 17.00746497 -67.00789136 19.72859802 -77.62109375 29.1953125 Z " fill="#FFFFFF" transform="translate(1594.62109375,955.8046875)"/>
<path d="M0 0 C1.32505554 0.14139404 1.32505554 0.14139404 2.67687988 0.28564453 C4.84592396 0.5172829 7.01481895 0.7502311 9.18359375 0.984375 C9.18945999 2.23115021 9.19532623 3.47792542 9.20137024 4.76248169 C9.25879267 16.5605931 9.33165511 28.35852364 9.41930866 40.15645027 C9.46387574 46.22066014 9.50316155 52.28480493 9.5300293 58.34912109 C9.55619906 64.21072688 9.59669685 70.07208039 9.64678001 75.9335289 C9.66335673 78.16037716 9.67492785 80.38726897 9.68120766 82.61417007 C9.25012283 107.52305996 9.25012283 107.52305996 20.55859375 128.796875 C31.92993042 138.03740461 49.78298227 135.20261241 63.18359375 133.984375 C63.18359375 90.094375 63.18359375 46.204375 63.18359375 0.984375 C81.93720378 -0.98968921 91.55312929 -1.08567661 110.18359375 0.984375 C110.18359375 55.104375 110.18359375 109.224375 110.18359375 164.984375 C82.7824598 172.1324969 82.7824598 172.1324969 69.18359375 173.984375 C68.26578125 174.11585938 67.34796875 174.24734375 66.40234375 174.3828125 C40.28053167 177.4413791 6.81550352 176.53149323 -14.81640625 159.984375 C-17.50390625 157.546875 -17.50390625 157.546875 -19.81640625 154.984375 C-20.285625 154.50742188 -20.75484375 154.03046875 -21.23828125 153.5390625 C-38.67539317 134.93348431 -38.12087837 107.72562374 -38.01171875 83.9921875 C-38.00798196 81.59081135 -38.00513814 79.18943365 -38.00314331 76.78805542 C-37.99555928 70.51145105 -37.97595648 64.23494136 -37.95373535 57.95837402 C-37.93316343 51.53606445 -37.92411747 45.11373937 -37.9140625 38.69140625 C-37.89270504 26.12235578 -37.85902554 13.55337046 -37.81640625 0.984375 C-34.91946937 0.65441319 -32.02231708 0.32659193 -29.125 0 C-27.89928284 -0.13994385 -27.89928284 -0.13994385 -26.64880371 -0.28271484 C-17.52544722 -1.30744803 -9.11447833 -0.98442997 0 0 Z " fill="#FFFFFF" transform="translate(861.81640625,941.015625)"/>
<path d="M0 0 C54.78 0 109.56 0 166 0 C168 19 168 19 166 42 C146.53 42 127.06 42 107 42 C107 106.02 107 170.04 107 236 C90.49154789 237.83427246 74.37627133 239.27525427 58 236 C58 171.98 58 107.96 58 42 C38.86 42 19.72 42 0 42 C-2.2539338 31.85729788 -2.2539338 31.85729788 -2.265625 27.1875 C-2.26820313 26.17429687 -2.27078125 25.16109375 -2.2734375 24.1171875 C-2.26183594 22.57417969 -2.26183594 22.57417969 -2.25 21 C-2.25773438 19.97132813 -2.26546875 18.94265625 -2.2734375 17.8828125 C-2.27085937 16.86960937 -2.26828125 15.85640625 -2.265625 14.8125 C-2.26336914 13.91144531 -2.26111328 13.01039063 -2.25878906 12.08203125 C-1.91597229 7.99927759 -0.88879034 3.99955654 0 0 Z " fill="#FFFFFF" transform="translate(527,876)"/>
<path d="M0 0 C0.83623901 0.0942627 1.67247803 0.18852539 2.53405762 0.28564453 C4.58665902 0.51721256 6.63905372 0.75061155 8.69140625 0.984375 C8.6947164 1.90613903 8.69802654 2.82790306 8.701437 3.77759933 C8.78276884 26.23879869 8.87489451 48.69993136 8.97893333 71.16103745 C9.02898792 82.02319694 9.07543153 92.88534915 9.11328125 103.74755859 C9.14629242 113.21852894 9.18617369 122.68944161 9.23419631 132.16034818 C9.25937078 137.17194683 9.2811785 142.18350766 9.29475021 147.19515228 C9.30765309 151.91964288 9.32979486 156.64400318 9.35878944 161.36842155 C9.3678013 163.09525321 9.37354036 164.82210581 9.37561989 166.54895973 C9.14517456 183.68809928 9.14517456 183.68809928 13.69140625 199.984375 C15.42302588 201.35078398 15.42302588 201.35078398 17.69140625 201.984375 C18.53445313 202.32726563 19.3775 202.67015625 20.24609375 203.0234375 C24.61188436 204.24110699 28.56305294 204.20274596 33.06640625 204.109375 C33.89785156 204.10035156 34.72929688 204.09132813 35.5859375 204.08203125 C37.62121962 204.0586372 39.65635189 204.02277225 41.69140625 203.984375 C44.00027661 211.25949481 45.04564214 218.33238761 45.44140625 225.921875 C45.48579834 226.73825439 45.53019043 227.55463379 45.57592773 228.39575195 C45.74610836 232.42807568 45.7417236 236.04568493 44.69140625 239.984375 C25.49861513 245.21877258 3.73174333 245.29166358 -14.30859375 236.234375 C-26.54395452 228.9225528 -32.63783616 218.43050852 -36.30859375 204.984375 C-38.62033001 194.34303916 -38.58150638 183.79735911 -38.53564453 172.9753418 C-38.53507929 171.09167487 -38.53539917 169.2080075 -38.53652954 167.32434082 C-38.53709965 162.2487869 -38.52540102 157.17332892 -38.51138163 152.09779716 C-38.49881696 146.7793806 -38.49769927 141.46096146 -38.49533081 136.14253235 C-38.48913282 126.08835113 -38.4727449 116.03421378 -38.45263183 105.98005182 C-38.43022032 94.52652822 -38.41926623 83.07300246 -38.40924096 71.61946237 C-38.38837707 48.07440899 -38.353234 24.52939446 -38.30859375 0.984375 C-35.24764368 0.65391063 -32.186357 0.32667132 -29.125 0 C-28.26120728 -0.0932959 -27.39741455 -0.1865918 -26.50744629 -0.28271484 C-17.41590049 -1.24957624 -9.07140341 -1.03570965 0 0 Z " fill="#FFFFFF" transform="translate(1399.30859375,871.015625)"/>
<path d="M0 0 C-2.09196821 8.0848894 -4.58858946 15.9785001 -7.2890625 23.87890625 C-7.70445282 25.10278549 -8.11984314 26.32666473 -8.54782104 27.58763123 C-9.66975623 30.89303837 -10.79569001 34.19707029 -11.9223938 37.50085449 C-13.11281276 40.99388074 -14.29936355 44.48822062 -15.48632812 47.98242188 C-17.64857248 54.3459313 -19.81387921 60.70839317 -21.98072433 67.0703373 C-24.1326145 73.38857961 -26.2815613 79.70782076 -28.4296875 86.02734375 C-30.46624244 92.01828293 -32.50297209 98.00916181 -34.54125977 103.99951172 C-39.55067395 118.7236184 -44.54326728 133.45339158 -49.53034687 148.18507385 C-51.09699193 152.8128319 -52.66414404 157.44041794 -54.23168945 162.06787109 C-54.45021041 162.71295372 -54.66873137 163.35803635 -54.89387417 164.02266693 C-55.98642974 167.24786056 -57.07905793 170.47302959 -58.17173767 173.69818115 C-60.26835782 179.88676184 -62.36416475 186.07561578 -64.45800781 192.26513672 C-66.34949386 197.8561409 -68.24371372 203.44621116 -70.1401062 209.03555298 C-70.8321534 211.07685124 -71.52319189 213.11849179 -72.21316528 215.16049194 C-73.15378051 217.94383986 -74.09791739 220.72596827 -75.04296875 223.5078125 C-75.31589752 224.31822495 -75.58882629 225.12863739 -75.87002563 225.96360779 C-76.24990128 227.07821129 -76.24990128 227.07821129 -76.63745117 228.21533203 C-76.85390793 228.85439484 -77.07036469 229.49345764 -77.29338074 230.15188599 C-78.07694006 232.20123144 -78.8935291 234.10276898 -80 236 C-93.83035669 240.97798917 -112.89811783 238.77128347 -127 236 C-124.54805913 226.25666475 -121.32721191 216.79916874 -118.1015625 207.29296875 C-117.51325062 205.55146371 -116.92521928 203.80986388 -116.33744812 202.06817627 C-114.76389366 197.40804123 -113.18640023 192.74924856 -111.60812759 188.09070969 C-109.95152547 183.19870648 -108.29862078 178.30545418 -106.64526367 173.41235352 C-103.05694942 162.7950796 -99.46346465 152.17956052 -95.86847687 141.56454468 C-94.57785029 137.75342473 -93.28770561 133.94214169 -91.99755859 130.13085938 C-88.62378937 120.16483582 -85.24892158 110.19918522 -81.87084961 100.23461914 C-74.45925343 78.37053386 -67.07176493 56.49832906 -59.6875 34.625 C-59.24520742 33.31487505 -59.24520742 33.31487505 -58.79397964 31.97828293 C-55.19549247 21.31902199 -51.59748639 10.65959874 -48 0 C-44.93774191 -0.33040862 -41.8751552 -0.65766944 -38.8125 -0.984375 C-37.94818359 -1.0776709 -37.08386719 -1.1709668 -36.19335938 -1.26708984 C-23.86870178 -2.57747011 -12.27514991 -1.41151621 0 0 Z " fill="#0C95D4" transform="translate(442,876)"/>
<path d="M0 0 C-0.58309063 5.07264346 -1.7199648 9.65265582 -3.421875 14.47265625 C-3.79953758 15.56796158 -3.79953758 15.56796158 -4.18482971 16.68539429 C-4.73929175 18.29143589 -5.29659039 19.89650031 -5.85635376 21.5007019 C-7.10641934 25.08424031 -8.34202321 28.67271825 -9.5785675 32.26094055 C-10.26434266 34.25082154 -10.95079645 36.24046876 -11.63786316 38.22990417 C-15.7982295 50.28607336 -19.87965615 62.36898594 -23.96447754 74.45089722 C-26.23085948 81.15412916 -28.50025666 87.85634064 -30.76953125 94.55859375 C-31.10503809 95.54960303 -31.10503809 95.54960303 -31.44732285 96.56063271 C-36.12128876 110.3659617 -40.8123154 124.16546681 -45.50857544 137.96322632 C-49.62534433 150.05908474 -53.73282003 162.15803747 -57.82675171 174.26164246 C-58.5452868 176.38592964 -59.26395862 178.51017052 -59.98266602 180.63439941 C-62.08782676 186.85674742 -64.19256256 193.07923635 -66.29449081 199.30267715 C-66.95104099 201.24601939 -67.60813186 203.18917785 -68.26544189 205.13226318 C-69.06647175 207.50031282 -69.86664075 209.86865394 -70.66571045 212.23736572 C-73.35775128 220.19018638 -76.15534004 228.10072223 -79 236 C-94.26631708 239.03956308 -110.77284266 239.5979781 -126 236 C-124.62459687 229.28529902 -122.76990121 222.8963761 -120.578125 216.40625 C-120.23682556 215.38422485 -119.89552612 214.36219971 -119.54388428 213.3092041 C-118.45013529 210.03804148 -117.35005267 206.76904736 -116.25 203.5 C-115.55820857 201.43111834 -114.86680018 199.36210856 -114.17578125 197.29296875 C-109.33273316 182.81835878 -104.39944519 168.37500276 -99.46018028 153.93303871 C-94.80694814 140.32428654 -90.18812638 126.7042671 -85.59765625 113.07421875 C-85.28860477 112.1566341 -84.9795533 111.23904945 -84.66113663 110.29365921 C-82.46041207 103.75866944 -80.26128903 97.22314121 -78.0625 90.6875 C-70.61416464 68.54862778 -63.15755437 46.41268702 -55.63122368 24.30018044 C-54.96157618 22.33249922 -54.29237773 20.36466512 -53.62364388 18.3966732 C-52.70036143 15.68036561 -51.77517337 12.9647152 -50.84936523 10.24926758 C-50.43673463 9.03406528 -50.43673463 9.03406528 -50.01576805 7.79431343 C-48.11469014 2.22938029 -48.11469014 2.22938029 -47 0 C-44.00134456 -0.48626845 -41.08203473 -0.84975028 -38.0625 -1.125 C-37.18730713 -1.2084668 -36.31211426 -1.29193359 -35.41040039 -1.37792969 C-23.32219041 -2.4812589 -12.01762754 -1.46620292 0 0 Z " fill="#0C95D4" transform="translate(236,876)"/>
<path d="M0 0 C0.68603516 2.04125977 0.68603516 2.04125977 1.2890625 4.69140625 C1.50820313 5.63564453 1.72734375 6.57988281 1.953125 7.55273438 C2.17484375 8.54595703 2.3965625 9.53917969 2.625 10.5625 C2.96917969 12.05813477 2.96917969 12.05813477 3.3203125 13.58398438 C3.88767734 16.05438546 4.44720154 18.52630588 5 21 C5.45455566 20.47108154 5.90911133 19.94216309 6.37744141 19.3972168 C17.90500136 6.08436138 28.79891211 -1.86404914 46.875 -3.21484375 C51.6673705 -3.28059274 56.28269742 -2.82040045 61 -2 C63.61231341 3.9399031 63.29502748 9.82736806 63.25 16.1875 C63.26160156 17.7972168 63.26160156 17.7972168 63.2734375 19.43945312 C63.25635877 26.49723628 62.51095012 33.10693543 61 40 C60.0255896 40.029729 60.0255896 40.029729 59.03149414 40.06005859 C56.04147478 40.15627933 53.05206352 40.26555899 50.0625 40.375 C49.04091797 40.4059375 48.01933594 40.436875 46.96679688 40.46875 C36.5851308 40.86676915 28.02192452 41.931625 20 49 C11.39022816 59.00646816 8.87988915 70.56937421 8.79467773 83.40185547 C8.78477814 84.32932083 8.77487854 85.25678619 8.76467896 86.21235657 C8.73320728 89.26394132 8.7083634 92.31554161 8.68359375 95.3671875 C8.66301184 97.48853957 8.64201504 99.60988766 8.62062073 101.73123169 C8.56552785 107.30424767 8.51606234 112.87729988 8.46777344 118.45037842 C8.4174649 124.14143076 8.36182772 129.83243074 8.30664062 135.5234375 C8.19921548 146.6822469 8.09773597 157.84110183 8 169 C-3.47625161 171.25178745 -3.47625161 171.25178745 -9.375 171.265625 C-10.46296875 171.26820313 -11.5509375 171.27078125 -12.671875 171.2734375 C-14.31929687 171.26183594 -14.31929687 171.26183594 -16 171.25 C-17.09828125 171.25773437 -18.1965625 171.26546875 -19.328125 171.2734375 C-20.41609375 171.27085937 -21.5040625 171.26828125 -22.625 171.265625 C-23.58664062 171.26336914 -24.54828125 171.26111328 -25.5390625 171.25878906 C-30.40424208 170.89499883 -35.19993317 169.87273942 -40 169 C-40 112.9 -40 56.8 -40 -1 C-10 -5 -10 -5 0 0 Z " fill="#FFFFFF" transform="translate(735,943)"/>
</svg>
